PathFileType	4	(X/Y/Z)	D:\TRACE\v60_Jaco2_6-2-23\BothDRS_Motion2_8-v60.trc
DataRate	CameraRate	NumFrames	NumMarkers	Units	OrigDataRate	OrigDataStartFrame	OrigNumFrames
100.00	100.00	      24	9	mm	100.00	938	      7500
Frame#	Time	front left toe			Front right toe			aft left toe			aft right toe			Arm			FL body			FR body			AL Body			AR Body			
		X1	Y1	Z1	X2	Y2	Z2	X3	Y3	Z3	X4	Y4	Z4	X5	Y5	Z5	X6	Y6	Z6	X7	Y7	Z7	X8	Y8	Z8	X9	Y9	Z9	

938	9.370	-248.58582	104.42836	-253.04729	82.90350	-4.36398	-257.80762	-296.29352	38.33609	371.21457	134.93077	166.23804	367.11871	-72.00767	1174.99731	-356.63263	-165.53392	540.13751	-394.87579	-5.13393	539.72504	-398.10910	-146.45486	589.57300	549.79572	9.99022	583.04706	547.68042	
939	9.380	-245.61942	97.67161	-249.60303	84.19093	-3.71801	-257.37869	-295.42087	38.00824	371.34891	137.26585	161.70798	370.95786	-71.69742	1175.26746	-355.48322	-164.42026	539.81183	-394.10330	-3.25009	539.84290	-396.96606	-145.40433	589.52252	550.97290	10.92507	583.66046	548.51184	
940	9.390	-244.92641	91.71042	-246.17084	85.41457	-3.42962	-257.13510	-294.70963	37.53949	371.71506	138.45120	156.03168	374.34647	-71.39096	1175.05823	-353.89178	-162.52475	539.20117	-393.07217	-2.20487	539.92114	-395.67929	-144.50537	589.27789	551.68219	12.00999	583.70862	549.71820	
941	9.400	-242.71211	83.98717	-243.14020	86.68081	-2.93039	-256.78003	-293.04416	36.56605	372.21957	140.33142	149.47470	378.09949	-71.67148	1175.29675	-352.84644	-160.65465	538.55133	-392.01224	-0.51179	540.18463	-394.59119	-144.03252	588.72351	552.60852	12.57105	583.90686	550.63983	
942	9.410	-240.74757	75.63556	-240.08463	87.52703	-2.75180	-256.58780	-292.19446	36.06964	372.28043	141.02866	141.22580	381.18839	-72.46710	1175.05408	-351.90182	-158.93674	538.40955	-390.94699	1.78099	540.41815	-393.89197	-142.88031	588.19983	553.70703	13.85793	583.71747	551.62341	
943	9.420	-240.18353	67.47056	-238.03796	89.03084	-2.33383	-256.27695	-291.01691	35.62400	372.39325	142.45863	131.65442	384.40686	-73.37952	1175.07410	-350.77542	-157.09406	538.26935	-390.19406	3.78179	540.64172	-392.84042	-141.53395	587.57281	554.64801	15.13656	583.62524	552.84045	
944	9.430	-239.18462	58.61372	-235.75702	90.20551	-1.94620	-256.12372	-289.58011	34.83064	372.71384	143.04002	120.80135	387.39630	-74.11192	1175.22937	-349.66711	-155.39085	538.70026	-389.41776	5.62663	541.19666	-391.81470	-140.36272	586.83154	555.57727	15.92770	583.21063	553.90247	
945	9.440	-238.88818	49.51081	-233.19322	91.60160	-1.37546	-255.89455	-288.54846	34.33152	373.09494	143.99158	109.24827	390.29218	-75.13245	1175.64001	-348.55887	-152.49756	538.21899	-387.98712	7.38226	541.93677	-390.73291	-139.25470	586.05841	556.68280	17.06030	582.83154	554.98053	
946	9.450	-237.62560	40.26307	-230.40749	92.68211	-0.97024	-255.44246	-287.56454	33.85949	373.24066	144.39166	97.41009	393.24866	-74.79482	1175.56079	-346.68552	-150.52022	538.28943	-387.00159	9.43249	542.33423	-389.77002	-137.96162	585.24597	557.54095	18.55386	582.68768	555.96613	
947	9.460	-236.25006	30.23453	-228.02083	93.88444	-0.64106	-255.20100	-286.15869	33.08491	373.65933	145.88261	87.65488	395.22818	-74.80875	1175.79504	-344.70013	-149.24554	538.42401	-386.25446	10.66937	542.95404	-388.37003	-136.91031	584.21814	558.70154	19.81347	582.05865	556.98767	
948	9.470	-234.19012	20.50552	-226.24576	95.14185	-0.18538	-254.91652	-284.58249	32.10220	374.04913	147.19757	77.26029	396.07239	-73.86753	1176.53894	-342.70169	-147.36555	538.65027	-385.28973	12.34846	543.41577	-387.27310	-135.80748	583.38525	559.85583	20.89343	581.62378	558.28827	
949	9.480	-232.40147	11.94150	-225.08797	96.17232	0.30017	-254.83705	-283.54941	31.64312	374.30038	149.02707	68.13203	396.63876	-73.31456	1176.72900	-340.51398	-146.15175	538.87482	-384.16995	14.03454	543.93439	-386.08884	-134.06020	582.51245	560.92395	22.28876	581.15759	559.47211	
950	9.490	-230.34464	4.66743	-225.10303	97.54474	0.92409	-254.22987	-283.19064	31.79329	374.47263	150.96466	59.79159	396.22318	-72.82778	1177.32800	-338.65598	-144.24243	539.56549	-383.14212	16.81815	544.53003	-385.08490	-132.83778	581.46747	562.50018	23.49743	580.35858	560.46381	
951	9.500	-230.95854	6.31335	-228.54874	98.64527	1.39094	-254.02643	-281.81152	30.86691	374.81329	152.67918	51.82336	395.89017	-71.87637	1177.54724	-336.52805	-141.30060	539.58331	-381.34274	17.72033	545.21863	-383.59424	-131.09442	580.63422	563.46558	24.93737	579.53229	562.09985	
952	9.510	-230.07419	5.15115	-226.35748	99.59247	1.91664	-253.77194	-280.28204	29.74757	375.21194	153.94220	45.22508	394.84961	-71.07874	1178.13782	-334.38843	-139.73819	540.99347	-380.11478	19.75736	546.44360	-382.08350	-130.22617	579.59991	564.99780	26.47046	578.22845	563.70087	
953	9.520	-228.41982	7.75062	-226.00890	100.72760	2.44584	-253.47581	-279.23566	29.11216	375.59375	153.78751	38.26436	394.35956	-69.63721	1179.04700	-331.85706	-138.37973	542.44275	-378.96951	21.80159	548.01056	-381.11633	-128.12250	578.39417	566.39185	28.12388	577.23816	564.87793	
954	9.530	-226.54033	7.80546	-225.80368	101.90755	3.16936	-253.18452	-277.62115	28.05079	375.99817	155.45810	33.44275	392.36905	-67.41530	1180.74353	-328.81119	-136.54945	543.80878	-377.58167	23.75232	549.38269	-379.49411	-126.75094	577.73578	567.60895	29.45418	576.91656	566.66486	
955	9.540	-225.30663	8.87735	-225.08469	103.02570	4.05549	-252.72375	-275.85654	28.11105	376.27844	157.75397	31.50377	392.53394	-64.70955	1182.65991	-324.97723	-133.85818	543.98669	-375.91458	25.97958	550.28735	-377.81253	-125.65327	578.12665	569.35431	30.32375	577.77570	567.75580	
956	9.550	-223.32938	8.24498	-223.81227	105.63811	7.04265	-252.77977	-274.35770	30.64173	375.96500	160.59604	32.04800	395.57159	-62.11290	1184.25964	-321.51221	-132.38193	544.94055	-375.05142	27.98679	551.19562	-376.42972	-124.58794	579.12842	570.99121	31.66170	579.17065	568.97913	
957	9.560	-222.32927	8.76499	-223.77541	105.11339	10.99810	-250.84869	-268.87326	33.52860	376.66599	160.53073	30.09117	395.87161	-59.79232	1185.35742	-319.61694	-130.62578	546.85907	-373.85086	29.53641	552.17664	-375.02945	-123.77492	579.49377	571.38654	32.58321	579.14423	570.45801	
958	9.570	-221.23462	9.58821	-224.02306	104.15923	16.16701	-247.50348	-262.71991	37.11555	380.74863	161.32907	29.46179	394.54752	-57.89678	1186.53552	-319.44052	-129.06836	548.65796	-372.83420	31.43302	553.75360	-373.47620	-122.52341	578.82153	573.19684	33.55023	578.68921	572.08521	
959	9.580	-220.56984	9.74619	-223.80722	103.38879	26.79254	-246.35564	-259.10312	45.33903	381.12888	162.68965	29.01899	396.48602	-56.09560	1187.21472	-319.28760	-126.30226	549.41364	-371.20709	32.85232	555.22339	-372.56558	-121.64212	577.58020	574.40723	34.88088	577.58453	573.61694	
960	9.590	-219.39171	10.08537	-223.68251	103.68667	38.03348	-244.48625	-257.29831	55.61573	380.16797	163.48926	28.09083	396.07501	-54.86859	1187.45764	-318.21832	-125.38815	550.68005	-370.48416	34.90231	556.06714	-371.51254	-120.66901	576.83191	575.48779	35.63132	576.58435	574.63293	
961	9.600	-218.27242	10.58854	-223.18665	105.54454	50.54869	-244.05113	-257.46460	67.80701	378.65204	164.06752	27.00856	396.67145	-53.94346	1187.53442	-316.19574	-124.87652	551.75433	-369.63458	36.05970	556.57874	-370.53613	-119.06453	576.43176	576.41412	37.18026	575.75610	575.90161	
